<svg width="16" height="16" viewBox="0 0 16 16" fill="none" xmlns="http://www.w3.org/2000/svg">
<path d="M7.77316 5.55067C8.605 4.70069 9.68812 4.14461 10.9481 4.14461C12.2714 4.14461 13.5404 4.67026 14.4761 5.60593C15.4117 6.54159 15.9374 7.81063 15.9374 9.13386V15.9374H14.1231V9.13386C14.1231 8.2918 13.7886 7.48424 13.1932 6.88881C12.5978 6.29339 11.7902 5.95888 10.9481 5.95888C10.1061 5.95888 9.29851 6.29339 8.70308 6.88881C8.10766 7.48424 7.77316 8.2918 7.77316 9.13386V15.9374H5.95888V4.59818H7.77316V5.55067ZM1.4232 2.78391C1.06232 2.78391 0.716222 2.64055 0.461041 2.38537C0.205859 2.13019 0.0625 1.78408 0.0625 1.4232C0.0625 1.06232 0.205859 0.716222 0.461041 0.461041C0.716222 0.205859 1.06232 0.0625 1.4232 0.0625C1.78408 0.0625 2.13019 0.205859 2.38537 0.461041C2.64055 0.716222 2.78391 1.06232 2.78391 1.4232C2.78391 1.78408 2.64055 2.13019 2.38537 2.38537C2.13019 2.64055 1.78408 2.78391 1.4232 2.78391ZM0.516068 4.59818H2.33034V15.9374H0.516068V4.59818Z" fill="white"/>
</svg>
