<svg width="152" height="60" viewBox="0 0 152 60" fill="none" xmlns="http://www.w3.org/2000/svg">
<g clip-path="url(#clip0_50_2499)">
<path d="M42.8233 14.3323L47.0448 10.112C46.628 9.95626 46.1865 9.876 45.7413 9.875H42.8191L41.4098 11.3464C41.227 11.5357 41.008 11.6869 40.7657 11.7909C40.5233 11.895 40.2625 11.9498 39.9985 11.9522L17.8004 12.251C17.6307 12.681 17.5435 13.1388 17.5435 13.6008V37.9008C17.5432 38.3898 17.6398 38.8741 17.8277 39.326C18.0157 39.7779 18.2913 40.1885 18.6389 40.5345C18.9864 40.8805 19.3991 41.155 19.8533 41.3424C20.3076 41.5298 20.7945 41.6263 21.2863 41.6266H42.357L42.3424 15.4967C42.3415 15.0606 42.5144 14.6419 42.8233 14.3323Z" fill="#CAF03F"/>
<path d="M42.361 49.824V47.8086L16.1279 47.823C15.8636 47.8239 15.6022 47.8779 15.3593 47.9816C15.1164 48.0854 14.8971 48.2368 14.7145 48.4268L6.76248 56.6944C6.49685 56.9732 6.31972 57.3235 6.25322 57.7018C6.18673 58.08 6.23382 58.4694 6.3886 58.8212C6.54339 59.173 6.79901 59.4716 7.12352 59.6798C7.44804 59.8879 7.82705 59.9964 8.2132 59.9916L43.8988 59.5114C44.1605 59.5083 44.4189 59.453 44.6588 59.349C44.8987 59.2449 45.1152 59.0942 45.2956 58.9056L52.7793 51.1057C53.0423 50.8283 53.218 50.4805 53.2849 50.1051C53.3517 49.7296 53.3067 49.343 53.1554 48.9926C53.0041 48.6423 52.7532 48.3436 52.4334 48.1332C52.1136 47.9228 51.7389 47.81 51.3555 47.8086H48.5141L45.1796 51.011C44.9458 51.2388 44.6494 51.3927 44.3278 51.4534C44.0062 51.514 43.6738 51.4786 43.3724 51.3517C43.0709 51.2248 42.8141 51.012 42.6341 50.7401C42.4541 50.4682 42.3591 50.1495 42.361 49.824Z" fill="#5CAACC"/>
<path d="M0.48085 18.4036C0.32694 18.5579 0.205226 18.7409 0.122711 18.9421C0.0401952 19.1433 -0.0014941 19.3588 4.08967e-05 19.5761L0.018693 53.8954C0.0179746 54.2196 0.113423 54.5369 0.293097 54.8074C0.47277 55.078 0.728692 55.2899 1.02885 55.4165C1.329 55.5432 1.66006 55.5791 1.98061 55.5197C2.30115 55.4602 2.59696 55.3081 2.83101 55.0824L12.2047 46.0791C12.3664 45.9237 12.4946 45.7373 12.5815 45.5311C12.6685 45.3249 12.7123 45.1033 12.7104 44.8797L12.4679 12.3203L6.47024 12.4007L0.48085 18.4036Z" fill="#C98EEF"/>
<path d="M55.0528 40.8019L54.7958 6.32811C54.794 6.00199 54.695 5.68372 54.5113 5.41357C54.3276 5.14342 54.0674 4.93352 53.7637 4.81042C53.4599 4.68733 53.1263 4.65657 52.805 4.72204C52.4837 4.78751 52.1892 4.94627 51.9586 5.17823L47.0448 10.1116C47.7595 10.3766 48.3754 10.8532 48.8093 11.477C49.2432 12.1008 49.4744 12.8419 49.4717 13.6004V37.9004C49.4722 38.3894 49.3759 38.8736 49.1881 39.3255C49.0004 39.7773 48.725 40.188 48.3776 40.534C48.0302 40.88 47.6177 41.1545 47.1635 41.3419C46.7094 41.5294 46.2226 41.626 45.7309 41.6262H42.3569V47.8084H48.5101L54.543 42.0136C54.7069 41.8572 54.8368 41.6689 54.9245 41.4605C55.0122 41.252 55.0559 41.0279 55.0528 40.8019Z" fill="#2FB384"/>
<path d="M49.4715 37.9002V13.6001C49.4743 12.8416 49.2431 12.1005 48.8092 11.4767C48.3752 10.8529 47.7594 10.3764 47.0447 10.1113L42.8231 14.3317C42.5143 14.6413 42.3414 15.0599 42.3423 15.496L42.3568 41.626H45.7308C46.2224 41.6257 46.7093 41.5291 47.1634 41.3417C47.6175 41.1543 48.0301 40.8797 48.3775 40.5337C48.7249 40.1877 49.0003 39.7771 49.188 39.3252C49.3757 38.8733 49.4721 38.3891 49.4715 37.9002Z" fill="#CAF03F"/>
<path d="M49.4715 37.9002V13.6001C49.4743 12.8416 49.2431 12.1005 48.8092 11.4767C48.3752 10.8529 47.7594 10.3764 47.0447 10.1113L42.8231 14.3317C42.5143 14.6413 42.3414 15.0599 42.3423 15.496L42.3568 41.626H45.7308C46.2224 41.6257 46.7093 41.5291 47.1634 41.3417C47.6175 41.1543 48.0301 40.8797 48.3775 40.5337C48.7249 40.1877 49.0003 39.7771 49.188 39.3252C49.3757 38.8733 49.4721 38.3891 49.4715 37.9002Z" fill="#2EA62D"/>
<g style="mix-blend-mode:multiply">
<path d="M42.3611 49.824C42.3592 50.1495 42.4542 50.4682 42.6342 50.7401C42.8142 51.012 43.071 51.2248 43.3725 51.3517C43.6739 51.4786 44.0063 51.514 44.3279 51.4534C44.6495 51.3927 44.9459 51.2388 45.1797 51.011L48.5142 47.8086H42.3611V49.824Z" fill="#558CAB"/>
</g>
<path d="M42.3611 49.824C42.3592 50.1495 42.4542 50.4682 42.6342 50.7401C42.8142 51.012 43.071 51.2248 43.3725 51.3517C43.6739 51.4786 44.0063 51.514 44.3279 51.4534C44.6495 51.3927 44.9459 51.2388 45.1797 51.011L48.5142 47.8086H42.3611V49.824Z" fill="#176259"/>
<path d="M21.2862 9.87509H42.8087L48.8851 3.53837C49.1481 3.26095 49.3239 2.91313 49.3907 2.53769C49.4576 2.16226 49.4126 1.77559 49.2613 1.42524C49.11 1.0749 48.859 0.776174 48.5392 0.565809C48.2194 0.355444 47.8448 0.242617 47.4613 0.241211L12.2275 0.251515C11.9619 0.251274 11.699 0.304874 11.455 0.409041C11.2109 0.513208 10.9907 0.665755 10.8079 0.857367L2.86833 9.12499C2.60369 9.40406 2.42743 9.75435 2.36148 10.1323C2.29553 10.5102 2.3428 10.8991 2.49742 11.2505C2.65204 11.6019 2.90717 11.9003 3.23106 12.1086C3.55496 12.317 3.93331 12.426 4.31905 12.4221L6.47233 12.3933L9.61624 9.25069C9.84679 9.01873 10.1413 8.85997 10.4626 8.7945C10.7839 8.72903 11.1176 8.75979 11.4213 8.88288C11.725 9.00598 11.9852 9.21588 12.1689 9.48603C12.3526 9.75619 12.4517 10.0745 12.4534 10.4006L12.4679 12.3232L17.8004 12.2511C18.0716 11.551 18.5499 10.9491 19.1723 10.5249C19.7946 10.1007 20.5317 9.87413 21.2862 9.87509Z" fill="#F28C8C"/>
<path d="M41.3993 11.3464L42.8086 9.875H21.2862C20.5316 9.87404 19.7945 10.1006 19.1722 10.5248C18.5499 10.949 18.0715 11.5509 17.8003 12.251L39.9984 11.9522C40.2606 11.9484 40.5194 11.893 40.7599 11.789C41.0004 11.685 41.2178 11.5345 41.3993 11.3464Z" fill="#CAF03F"/>
<path d="M41.3993 11.3464L42.8086 9.875H21.2862C20.5316 9.87404 19.7945 10.1006 19.1722 10.5248C18.5499 10.949 18.0715 11.5509 17.8003 12.251L39.9984 11.9522C40.2606 11.9484 40.5194 11.893 40.7599 11.789C41.0004 11.685 41.2178 11.5345 41.3993 11.3464Z" fill="#BF832F"/>
<path d="M9.6162 9.2505L6.47021 12.4034L12.4679 12.323L12.4534 10.4004C12.4516 10.0743 12.3526 9.75599 12.1689 9.48584C11.9851 9.21568 11.725 9.00578 11.4212 8.88269C11.1175 8.75959 10.7839 8.72883 10.4626 8.79431C10.1413 8.85978 9.84675 9.01853 9.6162 9.2505Z" fill="#C98EEF"/>
<path d="M9.6162 9.2505L6.47021 12.4034L12.4679 12.323L12.4534 10.4004C12.4516 10.0743 12.3526 9.75599 12.1689 9.48584C11.9851 9.21568 11.725 9.00578 11.4212 8.88269C11.1175 8.75959 10.7839 8.72883 10.4626 8.79431C10.1413 8.85978 9.84675 9.01853 9.6162 9.2505Z" fill="#BD5083"/>
<path d="M65.6968 19.4815C65.6604 19.4427 65.6322 19.3969 65.6141 19.347C65.5959 19.297 65.5881 19.244 65.5911 19.1909V1.52848C65.5878 1.47513 65.5955 1.42166 65.6136 1.37135C65.6318 1.32104 65.6601 1.27494 65.6968 1.23586C65.735 1.19966 65.7803 1.17166 65.8298 1.15358C65.8794 1.1355 65.9322 1.12774 65.9848 1.13076H70.1298C70.1831 1.12716 70.2367 1.13464 70.287 1.15274C70.3373 1.17083 70.3833 1.19914 70.422 1.23586C70.4584 1.2747 70.4865 1.32046 70.5047 1.3704C70.5229 1.42033 70.5307 1.47341 70.5277 1.52642V8.96357C70.5277 9.03364 70.5505 9.07691 70.594 9.09546C70.6375 9.114 70.6769 9.09546 70.7121 9.01509L72.4157 6.14244C72.4623 6.05939 72.5311 5.99079 72.6145 5.94423C72.6979 5.89768 72.7926 5.87498 72.8882 5.87867H77.346C77.574 5.87867 77.688 5.95698 77.688 6.11565C77.683 6.20013 77.6559 6.28184 77.6092 6.35263L74.4881 11.0449C74.4635 11.0726 74.4477 11.1071 74.4429 11.1438C74.4381 11.1806 74.4445 11.2179 74.4612 11.251L77.9844 19.1064L78.0362 19.3125C78.0362 19.4897 77.9222 19.5763 77.6963 19.5763H73.3856C73.29 19.5772 73.1966 19.5483 73.1185 19.4935C73.0405 19.4388 72.9816 19.3611 72.9504 19.2713L71.2717 14.8675C71.2551 14.7975 71.224 14.7624 71.1805 14.7624C71.137 14.7624 71.0976 14.7975 71.0624 14.8675L70.5898 15.7907C70.5671 15.8502 70.5498 15.9116 70.538 15.9741V19.1909C70.541 19.244 70.5332 19.297 70.515 19.347C70.4969 19.3969 70.4687 19.4427 70.4323 19.4815C70.3941 19.5177 70.3488 19.5457 70.2993 19.5638C70.2497 19.5819 70.1969 19.5896 70.1443 19.5866H65.9993C65.9443 19.5917 65.8888 19.5849 65.8366 19.5668C65.7843 19.5487 65.7367 19.5196 65.6968 19.4815Z" fill="white"/>
<path d="M79.7894 4.25714C79.5596 4.02128 79.3804 3.74152 79.2625 3.43477C79.1446 3.12803 79.0905 2.80069 79.1035 2.47256C79.0939 2.14468 79.1506 1.81822 79.2702 1.51252C79.3898 1.20681 79.5698 0.928066 79.7997 0.692784C80.0295 0.457503 80.3045 0.270467 80.6084 0.142747C80.9122 0.0150265 81.2387 -0.0507812 81.5686 -0.0507812C81.8985 -0.0507812 82.2251 0.0150265 82.5289 0.142747C82.8328 0.270467 83.1077 0.457503 83.3376 0.692784C83.5675 0.928066 83.7475 1.20681 83.8671 1.51252C83.9867 1.81822 84.0434 2.14468 84.0338 2.47256C84.0424 2.79809 83.9853 3.12203 83.8661 3.42532C83.7469 3.72861 83.5678 4.00513 83.3395 4.2386C82.8637 4.69243 82.2305 4.94686 81.5711 4.94916C80.9118 4.95146 80.2768 4.70146 79.7977 4.25096L79.7894 4.25714ZM79.2257 19.4818C79.1896 19.4428 79.1618 19.397 79.1439 19.347C79.1261 19.2971 79.1187 19.2441 79.1221 19.1912V6.27459C79.1187 6.22171 79.1261 6.16869 79.1439 6.11874C79.1618 6.0688 79.1896 6.02297 79.2257 5.98403C79.264 5.94794 79.3093 5.92 79.3589 5.90192C79.4084 5.88385 79.4611 5.87603 79.5138 5.87893H83.6587C83.7114 5.87603 83.7641 5.88385 83.8136 5.90192C83.8632 5.92 83.9085 5.94794 83.9468 5.98403C83.9832 6.02287 84.0113 6.06863 84.0295 6.11857C84.0477 6.1685 84.0555 6.22157 84.0525 6.27459V19.1912C84.0555 19.2442 84.0477 19.2973 84.0295 19.3472C84.0113 19.3972 83.9832 19.4429 83.9468 19.4818C83.9085 19.5179 83.8632 19.5458 83.8136 19.5639C83.7641 19.5819 83.7114 19.5898 83.6587 19.5869H79.5138C79.4625 19.5886 79.4113 19.5803 79.3633 19.5622C79.3153 19.5442 79.2713 19.5168 79.234 19.4818H79.2257Z" fill="white"/>
<path d="M93.3704 9.46505C93.3321 9.50115 93.2868 9.52909 93.2373 9.54716C93.1877 9.56523 93.135 9.57305 93.0823 9.57015H91.4554C91.4338 9.56695 91.4118 9.56887 91.391 9.57575C91.3703 9.58262 91.3515 9.59426 91.3362 9.60972C91.3208 9.62519 91.3094 9.64403 91.3027 9.66472C91.2961 9.68542 91.2944 9.70738 91.2979 9.72883V14.316C91.2979 15.018 91.595 15.369 92.1891 15.369H92.6885C92.7412 15.3661 92.794 15.3739 92.8435 15.392C92.893 15.4101 92.9383 15.438 92.9766 15.4741C93.0127 15.5132 93.0407 15.559 93.0588 15.6088C93.077 15.6587 93.085 15.7117 93.0823 15.7647V19.1917C93.0863 19.2456 93.0791 19.2997 93.0611 19.3507C93.0431 19.4017 93.0148 19.4484 92.9779 19.4881C92.9409 19.5277 92.8962 19.5593 92.8464 19.581C92.7966 19.6027 92.7429 19.614 92.6885 19.6141L91.0886 19.6409C89.5688 19.6409 88.4407 19.4122 87.7043 18.9547C86.9679 18.4972 86.5921 17.6276 86.5769 16.3458V9.72883C86.5804 9.70738 86.5787 9.68542 86.5721 9.66472C86.5655 9.64403 86.554 9.62519 86.5386 9.60972C86.5233 9.59426 86.5045 9.58262 86.4838 9.57575C86.463 9.56887 86.441 9.56695 86.4194 9.57015H85.3707C85.318 9.57305 85.2653 9.56523 85.2158 9.54716C85.1662 9.52909 85.1209 9.50115 85.0826 9.46505C85.0462 9.42622 85.0181 9.38045 84.9999 9.33052C84.9818 9.28058 84.9739 9.22751 84.9769 9.17449V6.27505C84.9739 6.22204 84.9818 6.16896 84.9999 6.11903C85.0181 6.06909 85.0462 6.02333 85.0826 5.98449C85.1209 5.9484 85.1662 5.92046 85.2158 5.90239C85.2653 5.88432 85.318 5.87649 85.3707 5.8794H86.4214C86.443 5.88215 86.4648 5.87992 86.4854 5.87289C86.5059 5.86585 86.5245 5.85421 86.5397 5.83885C86.555 5.82349 86.5664 5.80484 86.5732 5.78435C86.58 5.76386 86.582 5.74208 86.579 5.72072V2.74092C86.5761 2.68823 86.584 2.63551 86.6022 2.58593C86.6203 2.53636 86.6484 2.49094 86.6846 2.45241C86.7229 2.41632 86.7682 2.38838 86.8178 2.37031C86.8673 2.35224 86.92 2.34441 86.9727 2.34732H90.9104C90.9631 2.34429 91.0158 2.35206 91.0654 2.37014C91.1149 2.38821 91.1602 2.41622 91.1985 2.45241C91.2347 2.49094 91.2628 2.53636 91.2809 2.58593C91.2991 2.63551 91.307 2.68823 91.3041 2.74092V5.72072C91.3011 5.74208 91.3031 5.76386 91.3099 5.78435C91.3167 5.80484 91.3281 5.82349 91.3434 5.83885C91.3586 5.85421 91.3772 5.86585 91.3977 5.87289C91.4183 5.87992 91.4401 5.88215 91.4617 5.8794H93.0885C93.1412 5.87649 93.1939 5.88432 93.2435 5.90239C93.293 5.92046 93.3383 5.9484 93.3766 5.98449C93.4124 6.02369 93.4399 6.06956 93.4577 6.11944C93.4755 6.16932 93.4832 6.22221 93.4802 6.27505V9.17449C93.4823 9.22776 93.4737 9.28091 93.4548 9.33081C93.436 9.38071 93.4073 9.42635 93.3704 9.46505Z" fill="white"/>
<path d="M94.4707 14.0766C94.4351 14.0378 94.4076 13.9922 94.3898 13.9427C94.372 13.8932 94.3643 13.8407 94.3671 13.7881V10.3612C94.3641 10.3083 94.3718 10.2554 94.3896 10.2055C94.4074 10.1557 94.4349 10.1098 94.4707 10.0706C94.5093 10.0343 94.5549 10.0063 94.6048 9.98824C94.6547 9.97017 94.7078 9.96243 94.7608 9.9655H102.916C102.969 9.96259 103.021 9.97042 103.071 9.98849C103.12 10.0066 103.166 10.0345 103.204 10.0706C103.24 10.1094 103.269 10.1552 103.287 10.2051C103.305 10.2551 103.313 10.3081 103.31 10.3612V13.7881C103.313 13.8408 103.305 13.8935 103.286 13.9431C103.268 13.9927 103.24 14.0381 103.204 14.0766C103.166 14.1134 103.121 14.1419 103.071 14.1604C103.022 14.1788 102.969 14.1868 102.916 14.1838H94.7608C94.7076 14.187 94.6544 14.1791 94.6044 14.1606C94.5544 14.1422 94.5089 14.1136 94.4707 14.0766Z" fill="white"/>
<path d="M116.472 5.2735C116.434 5.3096 116.388 5.33754 116.339 5.35561C116.289 5.37368 116.236 5.3815 116.184 5.3786H109.786C109.765 5.37548 109.743 5.37738 109.722 5.38415C109.702 5.39092 109.683 5.40237 109.668 5.41758C109.653 5.4328 109.641 5.45135 109.634 5.47178C109.627 5.4922 109.625 5.51393 109.629 5.53521V8.00808C109.626 8.02945 109.628 8.05122 109.634 8.07171C109.641 8.0922 109.653 8.11085 109.668 8.12621C109.683 8.14157 109.702 8.15322 109.722 8.16025C109.743 8.16728 109.765 8.16951 109.786 8.16676H113.485C113.538 8.16385 113.591 8.17168 113.64 8.18975C113.69 8.20782 113.735 8.23576 113.774 8.27185C113.809 8.31105 113.837 8.35692 113.855 8.4068C113.872 8.45668 113.88 8.50957 113.877 8.56242V11.9956C113.88 12.0484 113.872 12.1013 113.855 12.1512C113.837 12.2011 113.809 12.2469 113.774 12.2861C113.735 12.3222 113.69 12.3502 113.64 12.3682C113.591 12.3863 113.538 12.3941 113.485 12.3912H109.786C109.765 12.3881 109.743 12.39 109.722 12.3968C109.702 12.4036 109.683 12.415 109.668 12.4302C109.653 12.4454 109.641 12.464 109.634 12.4844C109.627 12.5048 109.625 12.5266 109.629 12.5479V15.1856C109.625 15.2069 109.627 15.2286 109.634 15.249C109.641 15.2694 109.653 15.288 109.668 15.3032C109.683 15.3184 109.702 15.3299 109.722 15.3366C109.743 15.3434 109.765 15.3453 109.786 15.3422H116.186C116.239 15.3385 116.292 15.3462 116.342 15.3648C116.392 15.3834 116.437 15.4125 116.474 15.4501C116.512 15.4876 116.54 15.5328 116.559 15.5825C116.577 15.6322 116.584 15.6852 116.58 15.7379V19.1916C116.583 19.2446 116.575 19.2977 116.557 19.3476C116.538 19.3976 116.51 19.4433 116.474 19.4822C116.436 19.5183 116.39 19.5462 116.341 19.5643C116.291 19.5824 116.239 19.5902 116.186 19.5873H105.092C105.039 19.5902 104.987 19.5824 104.937 19.5643C104.888 19.5462 104.842 19.5183 104.804 19.4822C104.768 19.4433 104.739 19.3976 104.721 19.3476C104.703 19.2977 104.695 19.2446 104.698 19.1916V1.52917C104.695 1.47581 104.703 1.42235 104.721 1.37204C104.739 1.32173 104.767 1.27563 104.804 1.23655C104.842 1.20045 104.888 1.17251 104.937 1.15444C104.987 1.13637 105.039 1.12855 105.092 1.13145H116.186C116.238 1.12883 116.291 1.13679 116.34 1.15486C116.389 1.17292 116.434 1.20071 116.472 1.23655C116.508 1.27539 116.536 1.32115 116.555 1.37108C116.573 1.42102 116.581 1.47409 116.578 1.52711V4.98294C116.581 5.03596 116.573 5.08903 116.555 5.13897C116.536 5.1889 116.508 5.23466 116.472 5.2735Z" fill="white"/>
<path d="M120.88 19.0325C119.923 18.5444 119.131 17.7887 118.6 16.8584C118.042 15.855 117.761 14.7221 117.788 13.5757V7.06584C117.763 5.93191 118.043 4.81193 118.6 3.82226C119.132 2.8991 119.925 2.15167 120.88 1.67293C121.946 1.18092 123.106 0.925 124.282 0.922865C125.457 0.92073 126.618 1.17243 127.686 1.66056C128.626 2.12557 129.413 2.84851 129.953 3.74395C130.512 4.69418 130.795 5.77979 130.772 6.88037C130.776 6.99102 130.739 7.09929 130.666 7.1833C130.63 7.22306 130.585 7.25439 130.535 7.27505C130.486 7.29571 130.432 7.30519 130.378 7.30282L126.233 7.48623C125.972 7.48623 125.841 7.36464 125.841 7.11736V6.8268C125.866 6.38475 125.718 5.95032 125.427 5.61509C125.282 5.46441 125.107 5.34634 124.912 5.26884C124.718 5.19135 124.509 5.15623 124.3 5.16585C124.087 5.15736 123.876 5.19417 123.679 5.27379C123.483 5.35342 123.305 5.47401 123.16 5.62745C122.863 5.95548 122.707 6.38606 122.727 6.8268V13.893C122.707 14.3338 122.862 14.7647 123.16 15.0924C123.305 15.2458 123.483 15.3664 123.679 15.446C123.876 15.5256 124.087 15.5624 124.3 15.554C124.509 15.5636 124.718 15.5285 124.912 15.451C125.107 15.3735 125.282 15.2554 125.427 15.1047C125.718 14.7695 125.866 14.3351 125.841 13.893V13.5757C125.841 13.3304 125.972 13.2068 126.233 13.2068L130.378 13.3923C130.431 13.3894 130.483 13.3972 130.533 13.4152C130.582 13.4333 130.628 13.4613 130.666 13.4974C130.702 13.5362 130.731 13.582 130.749 13.6319C130.767 13.6818 130.775 13.7349 130.772 13.7879C130.794 14.8963 130.513 15.9898 129.957 16.9511C129.421 17.8606 128.629 18.5937 127.678 19.0592C126.625 19.5681 125.466 19.8209 124.295 19.797C123.111 19.8242 121.938 19.5617 120.88 19.0325Z" fill="white"/>
<path d="M135.147 19.0589C134.178 18.555 133.378 17.7808 132.844 16.8313C132.287 15.809 132.007 14.6598 132.032 13.497V7.22215C132.006 6.06326 132.286 4.91786 132.844 3.90026C133.379 2.95891 134.18 2.19385 135.147 1.69941C136.22 1.16413 137.408 0.897437 138.608 0.922517C139.812 0.898645 141.005 1.16521 142.083 1.69941C143.058 2.19 143.865 2.95557 144.404 3.90026C144.963 4.91786 145.243 6.06326 145.217 7.22215V13.497C145.242 14.6618 144.956 15.8122 144.388 16.8313C143.847 17.7804 143.041 18.5539 142.069 19.0589C140.99 19.5796 139.806 19.8502 138.607 19.8502C137.407 19.8502 136.224 19.5796 135.145 19.0589H135.147ZM139.828 15.0797C140.148 14.6847 140.311 14.1869 140.287 13.6805V7.08614C140.312 6.58027 140.149 6.0829 139.828 5.68897C139.678 5.51585 139.49 5.37858 139.278 5.28728C139.067 5.19598 138.838 5.15297 138.608 5.16142C138.382 5.15494 138.157 5.19897 137.951 5.29028C137.744 5.38158 137.561 5.51783 137.414 5.68897C137.094 6.0829 136.931 6.58027 136.956 7.08614V13.6805C136.931 14.1869 137.094 14.6847 137.414 15.0797C137.561 15.2506 137.744 15.3865 137.951 15.4775C138.157 15.5684 138.382 15.6121 138.608 15.6052C138.838 15.614 139.067 15.5714 139.278 15.4805C139.49 15.3895 139.678 15.2525 139.828 15.0797Z" fill="white"/>
<path d="M77.3627 41.7972C76.4485 41.3854 75.6698 40.7254 75.1162 39.8931C74.5771 39.0504 74.3003 38.0683 74.3204 37.0699V36.4743C74.3176 36.4218 74.3253 36.3693 74.3431 36.3198C74.3609 36.2702 74.3884 36.2247 74.424 36.1858C74.4623 36.1497 74.5076 36.1218 74.5571 36.1037C74.6066 36.0857 74.6594 36.0778 74.7121 36.0807H78.7533C78.8057 36.0779 78.8581 36.0857 78.9073 36.1038C78.9565 36.1219 79.0014 36.1498 79.0393 36.1858C79.0756 36.2244 79.1036 36.2698 79.1218 36.3193C79.14 36.3689 79.1479 36.4216 79.145 36.4743V36.8432C79.1453 37.0348 79.1888 37.2239 79.2724 37.3965C79.356 37.5691 79.4775 37.7209 79.6279 37.8406C79.9927 38.1325 80.4536 38.2794 80.9211 38.2527C81.0961 38.2671 81.2722 38.2454 81.4384 38.189C81.6045 38.1326 81.7572 38.0428 81.8869 37.9251C82.0871 37.7262 82.1997 37.4564 82.1998 37.175C82.2005 37.0131 82.1616 36.8536 82.0865 36.71C82.0114 36.5664 81.9024 36.4431 81.7688 36.3507C81.2543 36.0067 80.7082 35.7121 80.1377 35.4708L79.516 35.1555C78.6406 34.7403 77.7944 34.2667 76.9835 33.7377C76.2414 33.2427 75.607 32.6042 75.1182 31.8604C74.5832 31.024 74.3145 30.0465 74.3473 29.0557C74.3275 28.058 74.6044 27.0766 75.1431 26.2346C75.6827 25.4126 76.443 24.7573 77.3379 24.3429C78.3398 23.8818 79.4339 23.6528 80.5377 23.6731C81.683 23.6538 82.8175 23.8963 83.8536 24.382C84.7868 24.8219 85.5768 25.5138 86.1333 26.3788C86.6907 27.2583 86.9787 28.2801 86.9623 29.3195V29.7316C86.9651 29.7842 86.9574 29.8367 86.9396 29.8862C86.9218 29.9357 86.8943 29.9813 86.8587 30.0201C86.8204 30.0562 86.7751 30.0842 86.7256 30.1023C86.676 30.1203 86.6233 30.1281 86.5706 30.1252H82.5231C82.4704 30.1283 82.4177 30.1205 82.3681 30.1024C82.3186 30.0843 82.2733 30.0563 82.2351 30.0201C82.1988 29.9816 82.1707 29.9362 82.1526 29.8866C82.1344 29.837 82.1265 29.7843 82.1294 29.7316V29.3628C82.1294 29.169 82.0889 28.9773 82.0104 28.7999C81.9319 28.6225 81.8171 28.4633 81.6734 28.3324C81.5114 28.181 81.3203 28.0636 81.1117 27.9871C80.903 27.9107 80.6811 27.8767 80.459 27.8873C80.123 27.8719 79.7929 27.9789 79.5305 28.1882C79.4132 28.2903 79.3206 28.4175 79.2596 28.5603C79.1986 28.703 79.1707 28.8575 79.1782 29.0125C79.1883 29.218 79.2469 29.4183 79.3491 29.5973C79.4513 29.7763 79.5944 29.9289 79.7668 30.0428C80.1578 30.3505 80.928 30.7751 82.0776 31.3163C82.2516 31.4208 82.5128 31.5581 82.8609 31.7285C83.6258 32.1383 84.3675 32.5896 85.0826 33.0803C85.6559 33.4935 86.136 34.0213 86.4919 34.63C86.8947 35.3465 87.0932 36.1588 87.0659 36.9792C87.0659 38.6594 86.487 39.9899 85.3292 40.9708C84.1714 41.9517 82.6433 42.4415 80.745 42.4401C79.5835 42.4781 78.4282 42.2585 77.3627 41.7972Z" fill="white"/>
<path d="M91.3766 41.7436C90.4087 41.2441 89.6096 40.4731 89.0782 39.5263C88.5215 38.5081 88.2422 37.363 88.2679 36.2044V29.9563C88.2411 28.8015 88.5205 27.6601 89.0782 26.6468C89.6113 25.7074 90.4106 24.9448 91.3766 24.4542C92.4455 23.9205 93.6293 23.6545 94.8251 23.6793C96.0248 23.656 97.2123 23.9218 98.2861 24.4542C99.2568 24.9427 100.061 25.7055 100.597 26.6468C101.154 27.6603 101.433 28.8016 101.407 29.9563V36.2044C101.43 37.3649 101.144 38.5108 100.578 39.5263C100.039 40.4717 99.2353 41.2418 98.2654 41.7436C97.1914 42.2636 96.0124 42.5338 94.8179 42.5338C93.6233 42.5338 92.4444 42.2636 91.3703 41.7436H91.3766ZM96.0396 37.7808C96.358 37.3877 96.5203 36.892 96.4955 36.3878V29.8244C96.5198 29.3209 96.3575 28.826 96.0396 28.4334C95.8896 28.261 95.7026 28.1243 95.4924 28.0334C95.2822 27.9424 95.0542 27.8996 94.8251 27.9079C94.5998 27.9008 94.3758 27.9443 94.1699 28.0353C93.9639 28.1263 93.7812 28.2624 93.6355 28.4334C93.3176 28.826 93.1554 29.3209 93.1796 29.8244V36.3878C93.1548 36.892 93.3171 37.3877 93.6355 37.7808C93.7814 37.9515 93.9642 38.0872 94.1701 38.1778C94.3761 38.2685 94.6 38.3117 94.8251 38.3043C95.0541 38.313 95.282 38.2706 95.4922 38.18C95.7025 38.0894 95.8895 37.953 96.0396 37.7808Z" fill="white"/>
<path d="M105.795 41.7192C104.839 41.2329 104.047 40.4803 103.515 39.5534C102.96 38.5532 102.681 37.425 102.707 36.283V29.7979C102.682 28.6692 102.961 27.5545 103.515 26.5688C104.048 25.649 104.841 24.9046 105.795 24.4277C106.856 23.9371 108.011 23.6818 109.182 23.6797C110.352 23.6776 111.509 23.9286 112.572 24.4153C113.509 24.878 114.294 25.5982 114.833 26.4905C115.386 27.438 115.666 28.5191 115.641 29.6145C115.645 29.7241 115.608 29.8312 115.537 29.9154C115.501 29.9555 115.457 29.9871 115.407 30.0078C115.357 30.0285 115.303 30.0377 115.249 30.0349L111.123 30.2183C110.862 30.2183 110.731 30.0968 110.731 29.8515V29.561C110.756 29.1202 110.607 28.6871 110.317 28.3534C110.172 28.2038 109.997 28.0866 109.804 28.0099C109.61 27.9331 109.402 27.8984 109.193 27.9083C108.982 27.8996 108.771 27.9361 108.575 28.0154C108.379 28.0947 108.203 28.2148 108.058 28.3678C107.762 28.694 107.608 29.1225 107.627 29.561V36.5983C107.608 37.0375 107.762 37.4666 108.058 37.7935C108.203 37.9465 108.379 38.0667 108.575 38.146C108.771 38.2253 108.982 38.2618 109.193 38.2531C109.402 38.2633 109.61 38.2287 109.804 38.1515C109.998 38.0743 110.173 37.9564 110.317 37.8059C110.608 37.4725 110.757 37.0392 110.731 36.5983V36.283C110.731 36.0378 110.862 35.9162 111.123 35.9162L115.249 36.0996C115.302 36.0967 115.355 36.1046 115.404 36.1226C115.454 36.1407 115.499 36.1686 115.537 36.2047C115.573 36.2436 115.6 36.2891 115.618 36.3387C115.636 36.3882 115.644 36.4407 115.641 36.4932C115.664 37.5969 115.384 38.6861 114.833 39.6441C114.297 40.5515 113.504 41.2818 112.553 41.744C111.504 42.2509 110.349 42.5031 109.183 42.4796C108.008 42.5042 106.845 42.2432 105.795 41.7192Z" fill="white"/>
<path d="M117.21 42.1638C117.173 42.1254 117.145 42.08 117.127 42.0304C117.109 41.9808 117.101 41.928 117.104 41.8753V24.2829C117.101 24.2303 117.109 24.1775 117.127 24.128C117.145 24.0784 117.173 24.033 117.21 23.9944C117.247 23.9582 117.292 23.9301 117.342 23.9121C117.391 23.894 117.443 23.8862 117.496 23.8893H121.624C121.676 23.8866 121.729 23.8945 121.778 23.9126C121.827 23.9306 121.872 23.9585 121.91 23.9944C121.946 24.033 121.974 24.0784 121.992 24.128C122.011 24.1775 122.018 24.2303 122.016 24.2829V41.8753C122.02 41.9278 122.013 41.9807 121.995 42.0303C121.978 42.0799 121.949 42.125 121.912 42.1624C121.874 42.1999 121.829 42.2288 121.78 42.2472C121.73 42.2656 121.677 42.273 121.624 42.2689H117.496C117.443 42.272 117.391 42.2643 117.342 42.2462C117.292 42.2281 117.247 42.2001 117.21 42.1638Z" fill="white"/>
<path d="M133.508 41.929L133.064 39.9074C133.029 39.8188 132.977 39.7755 132.907 39.7755H128.99C128.919 39.7755 128.867 39.8188 128.832 39.9074L128.418 41.929C128.4 42.0305 128.344 42.1218 128.262 42.1847C128.18 42.2476 128.077 42.2777 127.974 42.269H123.686C123.63 42.2743 123.574 42.2664 123.522 42.246C123.47 42.2256 123.423 42.1932 123.386 42.1515C123.354 42.1036 123.334 42.0491 123.328 41.9923C123.321 41.9354 123.327 41.8778 123.346 41.8239L127.997 24.2315C128.009 24.1328 128.059 24.0425 128.136 23.9789C128.213 23.9154 128.312 23.8834 128.411 23.8894H133.593C133.692 23.8834 133.791 23.9154 133.868 23.9789C133.945 24.0425 133.995 24.1328 134.007 24.2315L138.627 41.8321C138.645 41.8729 138.654 41.9172 138.653 41.9619C138.653 42.1721 138.531 42.2772 138.287 42.2772H133.951C133.847 42.2857 133.743 42.2545 133.66 42.1899C133.578 42.1253 133.523 42.032 133.508 41.929ZM129.667 35.856C129.667 35.9446 129.719 35.9879 129.825 35.9879H132.044C132.167 35.9879 132.219 35.9261 132.202 35.8045L131.027 30.3436C131.009 30.2735 130.974 30.2385 130.921 30.2385C130.869 30.2385 130.834 30.2735 130.818 30.3436L129.667 35.8045V35.856Z" fill="white"/>
<path d="M140.098 42.1637C140.062 42.1253 140.033 42.08 140.015 42.0303C139.997 41.9807 139.989 41.9279 139.992 41.8752V24.2828C139.99 24.2302 139.997 24.1774 140.016 24.1279C140.034 24.0783 140.062 24.0329 140.098 23.9943C140.136 23.9583 140.181 23.9304 140.23 23.9123C140.279 23.8942 140.332 23.8864 140.384 23.8892H144.512C144.565 23.8864 144.617 23.8942 144.666 23.9123C144.716 23.9304 144.76 23.9583 144.798 23.9943C144.835 24.0329 144.863 24.0783 144.881 24.1279C144.899 24.1774 144.907 24.2302 144.904 24.2828V37.8836C144.901 37.9049 144.902 37.9266 144.909 37.9471C144.915 37.9676 144.927 37.9864 144.942 38.0018C144.957 38.0172 144.975 38.0289 144.996 38.0359C145.016 38.0429 145.038 38.0451 145.06 38.0423H151.617C151.669 38.0394 151.722 38.0472 151.772 38.0653C151.821 38.0834 151.867 38.1113 151.905 38.1474C151.94 38.1863 151.968 38.2318 151.986 38.2813C152.003 38.3308 152.011 38.3834 152.008 38.4359V41.8752C152.011 41.9278 152.004 41.9803 151.986 42.0299C151.968 42.0794 151.941 42.1249 151.905 42.1637C151.867 42.1998 151.821 42.2278 151.772 42.2458C151.722 42.2639 151.669 42.2717 151.617 42.2688H140.384C140.332 42.2717 140.279 42.2638 140.23 42.2458C140.181 42.2277 140.136 42.1998 140.098 42.1637Z" fill="white"/>
<path d="M68.6273 42.5334C70.3007 42.5334 71.6573 41.1845 71.6573 39.5206C71.6573 37.8567 70.3007 36.5078 68.6273 36.5078C66.954 36.5078 65.5974 37.8567 65.5974 39.5206C65.5974 41.1845 66.954 42.5334 68.6273 42.5334Z" fill="white"/>
</g>
<defs>
<clipPath id="clip0_50_2499">
<rect width="152" height="60" fill="white"/>
</clipPath>
</defs>
</svg>
