<svg width="33" height="33" viewBox="0 0 33 33" fill="none" xmlns="http://www.w3.org/2000/svg">
<path d="M21.136 18.0654L23.156 29.4334C23.1786 29.5673 23.1598 29.7048 23.1022 29.8277C23.0445 29.9506 22.9507 30.053 22.8332 30.1211C22.7158 30.1893 22.5804 30.2199 22.4451 30.209C22.3098 30.1981 22.181 30.1461 22.076 30.0601L17.3027 26.4774C17.0722 26.3053 16.7923 26.2122 16.5047 26.2122C16.217 26.2122 15.9371 26.3053 15.7067 26.4774L10.9253 30.0587C10.8204 30.1447 10.6918 30.1965 10.5567 30.2075C10.4215 30.2184 10.2862 30.1878 10.1689 30.1199C10.0515 30.052 9.9577 29.9498 9.89989 29.8272C9.84208 29.7045 9.82305 29.5672 9.84533 29.4334L11.864 18.0654M24.5 11.5454C24.5 15.9637 20.9183 19.5454 16.5 19.5454C12.0817 19.5454 8.5 15.9637 8.5 11.5454C8.5 7.12713 12.0817 3.54541 16.5 3.54541C20.9183 3.54541 24.5 7.12713 24.5 11.5454Z" stroke="black" stroke-width="1.5" stroke-linecap="round" stroke-linejoin="round"/>
</svg>
