<svg width="33" height="33" viewBox="0 0 33 33" fill="none" xmlns="http://www.w3.org/2000/svg">
<path d="M29.8333 14.2121V22.2121M8.49998 17.5454V22.2121C8.49998 23.2729 9.34283 24.2903 10.8431 25.0405C12.3434 25.7906 14.3782 26.2121 16.5 26.2121C18.6217 26.2121 20.6565 25.7906 22.1568 25.0405C23.6571 24.2903 24.5 23.2729 24.5 22.2121V17.5454M29.06 15.4414C29.2987 15.3361 29.5012 15.1631 29.6426 14.9438C29.7839 14.7245 29.8578 14.4686 29.8551 14.2077C29.8524 13.9468 29.7732 13.6925 29.6274 13.4762C29.4815 13.2599 29.2755 13.0911 29.0346 12.9907L17.6066 7.7854C17.2592 7.62693 16.8818 7.54492 16.5 7.54492C16.1181 7.54492 15.7407 7.62693 15.3933 7.7854L3.96664 12.9854C3.72927 13.0894 3.52733 13.2602 3.38553 13.4772C3.24373 13.6941 3.16821 13.9476 3.16821 14.2067C3.16821 14.4659 3.24373 14.7194 3.38553 14.9363C3.52733 15.1532 3.72927 15.3241 3.96664 15.4281L15.3933 20.6387C15.7407 20.7972 16.1181 20.8792 16.5 20.8792C16.8818 20.8792 17.2592 20.7972 17.6066 20.6387L29.06 15.4414Z" stroke="black" stroke-width="1.5" stroke-linecap="round" stroke-linejoin="round"/>
</svg>
