<svg width="61" height="61" viewBox="0 0 61 61" fill="none" xmlns="http://www.w3.org/2000/svg">
<path d="M18 52.8789H43M30.5 7.87891V52.8789M8 17.8789H13C18 17.8789 25.5 15.3789 30.5 12.8789C35.5 15.3789 43 17.8789 48 17.8789H53M40.5 40.3789L48 20.3789L55.5 40.3789C53.325 42.0039 50.7 42.8789 48 42.8789C45.3 42.8789 42.675 42.0039 40.5 40.3789ZM5.5 40.3789L13 20.3789L20.5 40.3789C18.325 42.0039 15.7 42.8789 13 42.8789C10.3 42.8789 7.675 42.0039 5.5 40.3789Z" stroke="black" stroke-width="3" stroke-linecap="round" stroke-linejoin="round"/>
</svg>
