<svg width="33" height="33" viewBox="0 0 33 33" fill="none" xmlns="http://www.w3.org/2000/svg">
<path d="M3.2334 3.6123H5.90007L9.44673 20.1723C9.57684 20.7788 9.91429 21.3209 10.401 21.7054C10.8877 22.09 11.4933 22.2928 12.1134 22.279H25.1534C25.7603 22.278 26.3487 22.07 26.8214 21.6894C27.2942 21.3088 27.6229 20.7783 27.7534 20.1856L29.9534 10.279H7.32673M12.5001 28.879C12.5001 29.6154 11.9031 30.2123 11.1667 30.2123C10.4304 30.2123 9.8334 29.6154 9.8334 28.879C9.8334 28.1426 10.4304 27.5456 11.1667 27.5456C11.9031 27.5456 12.5001 28.1426 12.5001 28.879ZM27.1667 28.879C27.1667 29.6154 26.5698 30.2123 25.8334 30.2123C25.097 30.2123 24.5001 29.6154 24.5001 28.879C24.5001 28.1426 25.097 27.5456 25.8334 27.5456C26.5698 27.5456 27.1667 28.1426 27.1667 28.879Z" stroke="black" stroke-width="1.5" stroke-linecap="round" stroke-linejoin="round"/>
</svg>
