<svg width="61" height="60" viewBox="0 0 61 60" fill="none" xmlns="http://www.w3.org/2000/svg">
<path d="M30.5 30.0088H23C19.0218 30.0088 15.2064 28.4284 12.3934 25.6154C9.58035 22.8023 8 18.987 8 15.0088V10.0088H15.5C19.4782 10.0088 23.2936 11.5891 26.1066 14.4022C28.9196 17.2152 30.5 21.0305 30.5 25.0088V50.0088M30.5 35.0088C30.5 31.0305 32.0804 27.2152 34.8934 24.4022C37.7064 21.5891 41.5218 20.0088 45.5 20.0088H53V22.5088C53 26.487 51.4196 30.3023 48.6066 33.1154C45.7936 35.9284 41.9782 37.5088 38 37.5088H30.5" stroke="#111111" stroke-width="3" stroke-linecap="round" stroke-linejoin="round"/>
</svg>
