<svg width="33" height="33" viewBox="0 0 33 33" fill="none" xmlns="http://www.w3.org/2000/svg">
<path d="M20.1001 9.27872C19.8557 9.52796 19.7189 9.86305 19.7189 10.2121C19.7189 10.5611 19.8557 10.8961 20.1001 11.1454L22.2334 13.2787C22.4826 13.523 22.8177 13.6599 23.1667 13.6599C23.5157 13.6599 23.8508 13.523 24.1001 13.2787L29.1267 8.25205C29.7972 9.73364 30.0002 11.3844 29.7087 12.9842C29.4172 14.5841 28.645 16.0572 27.4951 17.2071C26.3452 18.357 24.8721 19.1292 23.2722 19.4207C21.6724 19.7122 20.0216 19.5092 18.5401 18.8387L9.32672 28.052C8.79629 28.5825 8.07686 28.8805 7.32672 28.8805C6.57657 28.8805 5.85715 28.5825 5.32672 28.052C4.79629 27.5216 4.49829 26.8022 4.49829 26.052C4.49829 25.3019 4.79629 24.5825 5.32672 24.052L14.5401 14.8387C13.8696 13.3571 13.6666 11.7064 13.9581 10.1065C14.2496 8.50664 15.0218 7.03359 16.1717 5.88368C17.3216 4.73377 18.7946 3.96161 20.3945 3.67011C21.9944 3.3786 23.6451 3.5816 25.1267 4.25205L20.1001 9.27872Z" stroke="black" stroke-width="1.5" stroke-linecap="round" stroke-linejoin="round"/>
</svg>
